<?xml version="1.0" encoding="UTF-8" standalone="no"?>
<!DOCTYPE svg PUBLIC "-//W3C//DTD SVG 1.0//EN"
 "http://www.w3.org/TR/2001/REC-SVG-20010904/DTD/svg10.dtd" [
 <!ATTLIST svg xmlns:xlink CDATA #FIXED "http://www.w3.org/1999/xlink">
]>
<!-- Generated by Graphviz version 2.14.1 (Fri Nov  9 08:19:38 GMT 2007)
     For user: (upriss) Uta Priss -->
<!-- Title: names Pages: 1 -->
<svg width="1121pt" height="1232pt"
 viewBox="0.00 0.00 1121.00 1232.00" xmlns="http://www.w3.org/2000/svg" xmlns:xlink="http://www.w3.org/1999/xlink">
<g id="graph0" class="graph" transform="scale(1 1) rotate(0) translate(4 1228)">
<title>names</title>
<polygon style="fill:white;stroke:white;" points="-4,4 -4,-1228 1117,-1228 1117,4 -4,4"/>
<!-- node00 -->
<g id="node1" class="node"><title>node00</title>
<ellipse style="fill:none;stroke:black;" cx="519" cy="-1185" rx="73.8909" ry="38.8909"/>
<text text-anchor="middle" x="519" y="-1195" style="font-family:Times New Roman;font-size:14.00;">張三豐</text>
<text text-anchor="middle" x="519" y="-1182" style="font-family:Times New Roman;font-size:14.00;">Zhang Sanfeng</text>
<text text-anchor="middle" x="519" y="-1165" style="font-family:Times New Roman;font-size:14.00;">mythical</text>
</g>
<!-- node1 -->
<g id="node3" class="node"><title>node1</title>
<ellipse style="fill:none;stroke:black;" cx="519" cy="-1071" rx="71.8916" ry="38.8909"/>
<text text-anchor="middle" x="519" y="-1081" style="font-family:Times New Roman;font-size:14.00;">王宗嶽</text>
<text text-anchor="middle" x="519" y="-1068" style="font-family:Times New Roman;font-size:14.00;">Wang Zongyue</text>
<text text-anchor="middle" x="519" y="-1051" style="font-family:Times New Roman;font-size:14.00;">mythical</text>
</g>
<!-- node00&#45;&gt;node1 -->
<g id="edge2" class="edge"><title>node00&#45;&gt;node1</title>
<path style="fill:none;stroke:black;stroke-dasharray:5,2;" d="M519,-1146C519,-1137 519,-1129 519,-1120"/>
<polygon style="fill:black;stroke:black;" points="522.5,-1120 519,-1110 515.5,-1120 522.5,-1120"/>
</g>
<!-- node01 -->
<g id="node2" class="node"><title>node01</title>
<ellipse style="fill:none;stroke:black;" cx="519" cy="-945" rx="51.9271" ry="42.4264"/>
<text text-anchor="middle" x="519" y="-957" style="font-family:Times New Roman;font-size:14.00;">蔣發</text>
<text text-anchor="middle" x="519" y="-939" style="font-family:Times New Roman;font-size:14.00;">Jiang Fa</text>
<text text-anchor="middle" x="519" y="-922" style="font-family:Times New Roman;font-size:14.00;">mythical</text>
</g>
<!-- node9 -->
<g id="node12" class="node"><title>node9</title>
<ellipse style="fill:none;stroke:blue;" cx="691" cy="-819" rx="78.8909" ry="38.8909"/>
<text text-anchor="middle" x="691" y="-829" style="font-family:Times New Roman;font-size:14.00;">陳長興</text>
<text text-anchor="middle" x="691" y="-816" style="font-family:Times New Roman;font-size:14.00;">Chen Changxing</text>
<text text-anchor="middle" x="691" y="-799" style="font-family:Times New Roman;font-size:14.00;">1771&#45;1853</text>
</g>
<!-- node01&#45;&gt;node9 -->
<g id="edge6" class="edge"><title>node01&#45;&gt;node9</title>
<path style="fill:none;stroke:black;stroke-dasharray:5,2;" d="M555,-914C563,-907 572,-900 580,-894 597,-881 616,-868 633,-856"/>
<polygon style="fill:black;stroke:black;" points="635.621,-858.459 642,-850 631.738,-852.635 635.621,-858.459"/>
</g>
<!-- node10 -->
<g id="node13" class="node"><title>node10</title>
<ellipse style="fill:none;stroke:blue;" cx="519" cy="-819" rx="65.8909" ry="38.8909"/>
<text text-anchor="middle" x="519" y="-829" style="font-family:Times New Roman;font-size:14.00;">陳有本</text>
<text text-anchor="middle" x="519" y="-816" style="font-family:Times New Roman;font-size:14.00;">Chen Youben</text>
<text text-anchor="middle" x="519" y="-799" style="font-family:Times New Roman;font-size:14.00;">circa 1800s</text>
</g>
<!-- node01&#45;&gt;node10 -->
<g id="edge8" class="edge"><title>node01&#45;&gt;node10</title>
<path style="fill:none;stroke:black;stroke-dasharray:5,2;" d="M519,-902C519,-891 519,-879 519,-868"/>
<polygon style="fill:black;stroke:black;" points="522.5,-868 519,-858 515.5,-868 522.5,-868"/>
</g>
<!-- node1&#45;&gt;node01 -->
<g id="edge4" class="edge"><title>node1&#45;&gt;node01</title>
<path style="fill:none;stroke:black;stroke-dasharray:5,2;" d="M519,-1032C519,-1021 519,-1009 519,-998"/>
<polygon style="fill:black;stroke:black;" points="522.5,-998 519,-988 515.5,-998 522.5,-998"/>
</g>
<!-- node0 -->
<g id="node4" class="node"><title>node0</title>
<ellipse style="fill:none;stroke:green;" cx="501" cy="-567" rx="60.8918" ry="38.8909"/>
<text text-anchor="middle" x="501" y="-577" style="font-family:Times New Roman;font-size:14.00;">武禹襄</text>
<text text-anchor="middle" x="501" y="-564" style="font-family:Times New Roman;font-size:14.00;">Wu Yuxiang</text>
<text text-anchor="middle" x="501" y="-547" style="font-family:Times New Roman;font-size:14.00;">1812&#45;1880</text>
</g>
<!-- node12 -->
<g id="node15" class="node"><title>node12</title>
<ellipse style="fill:none;stroke:black;" cx="548" cy="-449" rx="65.8917" ry="38.8909"/>
<text text-anchor="middle" x="548" y="-459" style="font-family:Times New Roman;font-size:14.00;">楊班侯</text>
<text text-anchor="middle" x="548" y="-446" style="font-family:Times New Roman;font-size:14.00;">Yang Banhou</text>
<text text-anchor="middle" x="548" y="-429" style="font-family:Times New Roman;font-size:14.00;">1837&#45;1890</text>
</g>
<!-- node0&#45;&gt;node12 -->
<g id="edge30" class="edge"><title>node0&#45;&gt;node12</title>
<path style="fill:none;stroke:black;" d="M516,-529C520,-519 525,-508 529,-497"/>
<polygon style="fill:black;stroke:black;" points="532.536,-497.585 533,-487 526.036,-494.985 532.536,-497.585"/>
</g>
<!-- node15 -->
<g id="node18" class="node"><title>node15</title>
<ellipse style="fill:none;stroke:green;" cx="354" cy="-449" rx="59.1335" ry="43.1335"/>
<text text-anchor="middle" x="354" y="-462" style="font-family:Times New Roman;font-size:14.00;">李亦畬</text>
<text text-anchor="middle" x="354" y="-443" style="font-family:Times New Roman;font-size:14.00;">Li Yiyu</text>
<text text-anchor="middle" x="354" y="-426" style="font-family:Times New Roman;font-size:14.00;">1832&#45;1892</text>
</g>
<!-- node0&#45;&gt;node15 -->
<g id="edge28" class="edge"><title>node0&#45;&gt;node15</title>
<path style="fill:none;stroke:black;" d="M463,-536C445,-521 421,-503 402,-487"/>
<polygon style="fill:black;stroke:black;" points="404.1,-484.2 394,-481 399.9,-489.8 404.1,-484.2"/>
</g>
<!-- node2 -->
<g id="node5" class="node"><title>node2</title>
<ellipse style="fill:none;stroke:yellow;" cx="98" cy="-173" rx="97.9117" ry="50.9117"/>
<text text-anchor="middle" x="98" y="-191" style="font-family:Times New Roman;font-size:14.00;">孫祿堂</text>
<text text-anchor="middle" x="98" y="-178" style="font-family:Times New Roman;font-size:14.00;">Sun Lutang</text>
<text text-anchor="middle" x="98" y="-161" style="font-family:Times New Roman;font-size:14.00;">1861&#45;1932</text>
<text text-anchor="middle" x="98" y="-144" style="font-family:Times New Roman;font-size:14.00;">Founder of Sun style</text>
</g>
<!-- node3 -->
<g id="node6" class="node"><title>node3</title>
<ellipse style="fill:none;stroke:red;" cx="513" cy="-315" rx="95.9475" ry="54.4472"/>
<text text-anchor="middle" x="513" y="-336" style="font-family:Times New Roman;font-size:14.00;">吳全佑</text>
<text text-anchor="middle" x="513" y="-318" style="font-family:Times New Roman;font-size:14.00;">Wu Quanyou</text>
<text text-anchor="middle" x="513" y="-301" style="font-family:Times New Roman;font-size:14.00;">1834&#45;1902</text>
<text text-anchor="middle" x="513" y="-284" style="font-family:Times New Roman;font-size:14.00;">Founder of Wu style</text>
</g>
<!-- node16 -->
<g id="node19" class="node"><title>node16</title>
<ellipse style="fill:none;stroke:red;" cx="521" cy="-173" rx="65.9264" ry="42.4264"/>
<text text-anchor="middle" x="521" y="-185" style="font-family:Times New Roman;font-size:14.00;">吳鑑泉</text>
<text text-anchor="middle" x="521" y="-167" style="font-family:Times New Roman;font-size:14.00;">Wu Jianquan</text>
<text text-anchor="middle" x="521" y="-150" style="font-family:Times New Roman;font-size:14.00;">1870&#45;1942</text>
</g>
<!-- node3&#45;&gt;node16 -->
<g id="edge32" class="edge"><title>node3&#45;&gt;node16</title>
<path style="fill:none;stroke:black;" d="M516,-261C517,-250 518,-237 518,-226"/>
<polygon style="fill:black;stroke:black;" points="521.5,-226 518,-216 514.5,-226 521.5,-226"/>
</g>
<!-- node4 -->
<g id="node7" class="node"><title>node4</title>
<ellipse style="fill:none;stroke:red;" cx="521" cy="-43" rx="65.9264" ry="42.4264"/>
<text text-anchor="middle" x="521" y="-55" style="font-family:Times New Roman;font-size:14.00;">吳公藻</text>
<text text-anchor="middle" x="521" y="-37" style="font-family:Times New Roman;font-size:14.00;">Wu Gongzao</text>
<text text-anchor="middle" x="521" y="-20" style="font-family:Times New Roman;font-size:14.00;">1902&#45;1983</text>
</g>
<!-- node5 -->
<g id="node8" class="node"><title>node5</title>
<ellipse style="fill:none;stroke:red;" cx="670" cy="-43" rx="64.9264" ry="42.4264"/>
<text text-anchor="middle" x="670" y="-55" style="font-family:Times New Roman;font-size:14.00;">马岳梁</text>
<text text-anchor="middle" x="670" y="-37" style="font-family:Times New Roman;font-size:14.00;">Ma Yueliang</text>
<text text-anchor="middle" x="670" y="-20" style="font-family:Times New Roman;font-size:14.00;">1901&#45;1998</text>
</g>
<!-- node6 -->
<g id="node9" class="node"><title>node6</title>
<ellipse style="fill:none;stroke:red;" cx="816" cy="-43" rx="62.927" ry="42.4264"/>
<text text-anchor="middle" x="816" y="-55" style="font-family:Times New Roman;font-size:14.00;">吳英华</text>
<text text-anchor="middle" x="816" y="-37" style="font-family:Times New Roman;font-size:14.00;">Wu Yinghua</text>
<text text-anchor="middle" x="816" y="-20" style="font-family:Times New Roman;font-size:14.00;">1907&#45;1996</text>
</g>
<!-- node7 -->
<g id="node10" class="node"><title>node7</title>
<ellipse style="fill:none;stroke:black;" cx="691" cy="-693" rx="100.912" ry="50.9117"/>
<text text-anchor="middle" x="691" y="-711" style="font-family:Times New Roman;font-size:14.00;">楊露禪</text>
<text text-anchor="middle" x="691" y="-698" style="font-family:Times New Roman;font-size:14.00;">Yang Luchan</text>
<text text-anchor="middle" x="691" y="-681" style="font-family:Times New Roman;font-size:14.00;">1799&#45;1872</text>
<text text-anchor="middle" x="691" y="-664" style="font-family:Times New Roman;font-size:14.00;">Founder of Yang style</text>
</g>
<!-- node7&#45;&gt;node0 -->
<g id="edge14" class="edge"><title>node7&#45;&gt;node0</title>
<path style="fill:none;stroke:black;" d="M630,-652C605,-635 576,-617 552,-601"/>
<polygon style="fill:black;stroke:black;" points="554.1,-598.2 544,-595 549.9,-603.8 554.1,-598.2"/>
</g>
<!-- node7&#45;&gt;node12 -->
<g id="edge18" class="edge"><title>node7&#45;&gt;node12</title>
<path style="fill:none;stroke:black;" d="M647,-647C636,-634 625,-620 616,-606 594,-572 577,-529 565,-497"/>
<polygon style="fill:black;stroke:black;" points="568.26,-495.717 561,-488 561.863,-498.56 568.26,-495.717"/>
</g>
<!-- node13 -->
<g id="node16" class="node"><title>node13</title>
<ellipse style="fill:none;stroke:black;" cx="691" cy="-567" rx="65.8917" ry="38.8909"/>
<text text-anchor="middle" x="691" y="-577" style="font-family:Times New Roman;font-size:14.00;">楊健侯</text>
<text text-anchor="middle" x="691" y="-564" style="font-family:Times New Roman;font-size:14.00;">Yang Jianhou</text>
<text text-anchor="middle" x="691" y="-547" style="font-family:Times New Roman;font-size:14.00;">1839&#45;1917</text>
</g>
<!-- node7&#45;&gt;node13 -->
<g id="edge20" class="edge"><title>node7&#45;&gt;node13</title>
<path style="fill:none;stroke:black;" d="M691,-642C691,-633 691,-625 691,-616"/>
<polygon style="fill:black;stroke:black;" points="694.5,-616 691,-606 687.5,-616 694.5,-616"/>
</g>
<!-- node8 -->
<g id="node11" class="node"><title>node8</title>
<ellipse style="fill:none;stroke:black;" cx="696" cy="-315" rx="68.8909" ry="38.8909"/>
<text text-anchor="middle" x="696" y="-325" style="font-family:Times New Roman;font-size:14.00;">楊澄甫</text>
<text text-anchor="middle" x="696" y="-312" style="font-family:Times New Roman;font-size:14.00;">Yang Chengfu</text>
<text text-anchor="middle" x="696" y="-295" style="font-family:Times New Roman;font-size:14.00;">1883&#45;1936</text>
</g>
<!-- node17 -->
<g id="node20" class="node"><title>node17</title>
<ellipse style="fill:none;stroke:black;" cx="696" cy="-173" rx="83.0122" ry="41.0122"/>
<text text-anchor="middle" x="696" y="-168" style="font-family:Times New Roman;font-size:14.00;">Yang Shou&#45;chung</text>
<text text-anchor="middle" x="696" y="-151" style="font-family:Times New Roman;font-size:14.00;">1910&#45;1985</text>
</g>
<!-- node8&#45;&gt;node17 -->
<g id="edge34" class="edge"><title>node8&#45;&gt;node17</title>
<path style="fill:none;stroke:black;" d="M696,-276C696,-260 696,-241 696,-224"/>
<polygon style="fill:black;stroke:black;" points="699.5,-224 696,-214 692.5,-224 699.5,-224"/>
</g>
<!-- node9&#45;&gt;node7 -->
<g id="edge10" class="edge"><title>node9&#45;&gt;node7</title>
<path style="fill:none;stroke:black;" d="M691,-780C691,-772 691,-763 691,-754"/>
<polygon style="fill:black;stroke:black;" points="694.5,-754 691,-744 687.5,-754 694.5,-754"/>
</g>
<!-- node26 -->
<g id="node26" class="node"><title>node26</title>
<ellipse style="fill:none;stroke:blue;" cx="904" cy="-693" rx="62.8711" ry="26.8701"/>
<text text-anchor="middle" x="904" y="-694" style="font-family:Times New Roman;font-size:14.00;">陳耕耘</text>
<text text-anchor="middle" x="904" y="-681" style="font-family:Times New Roman;font-size:14.00;">Chen Genyun</text>
</g>
<!-- node9&#45;&gt;node26 -->
<g id="edge58" class="edge"><title>node9&#45;&gt;node26</title>
<path style="fill:none;stroke:black;" d="M742,-789C778,-768 824,-741 858,-720"/>
<polygon style="fill:black;stroke:black;" points="859.958,-722.916 867,-715 856.559,-716.797 859.958,-722.916"/>
</g>
<!-- node11 -->
<g id="node14" class="node"><title>node11</title>
<ellipse style="fill:none;stroke:blue;" cx="499" cy="-693" rx="72.8909" ry="38.8909"/>
<text text-anchor="middle" x="499" y="-703" style="font-family:Times New Roman;font-size:14.00;">陳清苹</text>
<text text-anchor="middle" x="499" y="-690" style="font-family:Times New Roman;font-size:14.00;">Chen Qingping</text>
<text text-anchor="middle" x="499" y="-673" style="font-family:Times New Roman;font-size:14.00;">1795 &#45; 1868</text>
</g>
<!-- node10&#45;&gt;node11 -->
<g id="edge12" class="edge"><title>node10&#45;&gt;node11</title>
<path style="fill:none;stroke:black;" d="M513,-780C511,-768 509,-754 507,-742"/>
<polygon style="fill:black;stroke:black;" points="510.393,-741.119 505,-732 503.529,-742.492 510.393,-741.119"/>
</g>
<!-- node11&#45;&gt;node0 -->
<g id="edge16" class="edge"><title>node11&#45;&gt;node0</title>
<path style="fill:none;stroke:black;" d="M500,-654C500,-642 500,-629 500,-616"/>
<polygon style="fill:black;stroke:black;" points="503.5,-616 500,-606 496.5,-616 503.5,-616"/>
</g>
<!-- node12&#45;&gt;node3 -->
<g id="edge22" class="edge"><title>node12&#45;&gt;node3</title>
<path style="fill:none;stroke:black;" d="M538,-410C536,-400 533,-390 530,-379"/>
<polygon style="fill:black;stroke:black;" points="533.226,-377.573 527,-369 526.521,-379.584 533.226,-377.573"/>
</g>
<!-- node12&#45;&gt;node8 -->
<g id="edge48" class="edge"><title>node12&#45;&gt;node8</title>
<path style="fill:none;stroke:black;" d="M584,-416C605,-398 630,-375 652,-355"/>
<polygon style="fill:black;stroke:black;" points="654.404,-357.546 659,-348 649.454,-352.596 654.404,-357.546"/>
</g>
<!-- node13&#45;&gt;node8 -->
<g id="edge26" class="edge"><title>node13&#45;&gt;node8</title>
<path style="fill:none;stroke:black;" d="M683,-528C681,-516 680,-504 679,-492 675,-453 675,-444 679,-406 680,-392 682,-378 685,-364"/>
<polygon style="fill:black;stroke:black;" points="688.471,-364.492 687,-354 681.607,-363.119 688.471,-364.492"/>
</g>
<!-- node14 -->
<g id="node17" class="node"><title>node14</title>
<ellipse style="fill:none;stroke:black;" cx="759" cy="-449" rx="70.8909" ry="38.8909"/>
<text text-anchor="middle" x="759" y="-459" style="font-family:Times New Roman;font-size:14.00;">楊少侯</text>
<text text-anchor="middle" x="759" y="-446" style="font-family:Times New Roman;font-size:14.00;">Yang Shaohou</text>
<text text-anchor="middle" x="759" y="-429" style="font-family:Times New Roman;font-size:14.00;">1862&#45;1930</text>
</g>
<!-- node13&#45;&gt;node14 -->
<g id="edge24" class="edge"><title>node13&#45;&gt;node14</title>
<path style="fill:none;stroke:black;" d="M712,-530C718,-519 725,-507 732,-496"/>
<polygon style="fill:black;stroke:black;" points="735.203,-497.441 737,-487 729.084,-494.042 735.203,-497.441"/>
</g>
<!-- node18 -->
<g id="node21" class="node"><title>node18</title>
<ellipse style="fill:none;stroke:green;" cx="268" cy="-315" rx="111.947" ry="54.4472"/>
<text text-anchor="middle" x="268" y="-336" style="font-family:Times New Roman;font-size:14.00;">郝為真</text>
<text text-anchor="middle" x="268" y="-318" style="font-family:Times New Roman;font-size:14.00;">Hao Weizhen</text>
<text text-anchor="middle" x="268" y="-301" style="font-family:Times New Roman;font-size:14.00;">1849&#45;1920</text>
<text text-anchor="middle" x="268" y="-284" style="font-family:Times New Roman;font-size:14.00;">Founder of Wu/hao style</text>
</g>
<!-- node15&#45;&gt;node18 -->
<g id="edge36" class="edge"><title>node15&#45;&gt;node18</title>
<path style="fill:none;stroke:black;" d="M329,-410C323,-400 315,-387 308,-376"/>
<polygon style="fill:black;stroke:black;" points="310.459,-373.379 302,-367 304.635,-377.262 310.459,-373.379"/>
</g>
<!-- node16&#45;&gt;node4 -->
<g id="edge42" class="edge"><title>node16&#45;&gt;node4</title>
<path style="fill:none;stroke:black;" d="M521,-130C521,-119 521,-107 521,-96"/>
<polygon style="fill:black;stroke:black;" points="524.5,-96 521,-86 517.5,-96 524.5,-96"/>
</g>
<!-- node16&#45;&gt;node5 -->
<g id="edge44" class="edge"><title>node16&#45;&gt;node5</title>
<path style="fill:none;stroke:black;" d="M561,-139C581,-122 603,-101 623,-84"/>
<polygon style="fill:black;stroke:black;" points="625.779,-86.2191 631,-77 621.169,-80.9511 625.779,-86.2191"/>
</g>
<!-- node16&#45;&gt;node6 -->
<g id="edge46" class="edge"><title>node16&#45;&gt;node6</title>
<path style="fill:none;stroke:black;" d="M566,-142C578,-134 591,-127 604,-122 663,-96 684,-110 744,-86 750,-83 756,-80 761,-78"/>
<polygon style="fill:black;stroke:black;" points="762.958,-80.916 770,-73 759.559,-74.7969 762.958,-80.916"/>
</g>
<!-- node19 -->
<g id="node22" class="node"><title>node19</title>
<ellipse style="fill:none;stroke:red;" cx="378" cy="-43" rx="58.927" ry="42.4264"/>
<text text-anchor="middle" x="378" y="-55" style="font-family:Times New Roman;font-size:14.00;">吳公儀</text>
<text text-anchor="middle" x="378" y="-37" style="font-family:Times New Roman;font-size:14.00;">Wu Gongyi</text>
<text text-anchor="middle" x="378" y="-20" style="font-family:Times New Roman;font-size:14.00;">1900&#45;1970</text>
</g>
<!-- node16&#45;&gt;node19 -->
<g id="edge38" class="edge"><title>node16&#45;&gt;node19</title>
<path style="fill:none;stroke:black;" d="M483,-138C464,-121 442,-101 423,-84"/>
<polygon style="fill:black;stroke:black;" points="424.831,-80.9511 415,-77 420.221,-86.2191 424.831,-80.9511"/>
</g>
<!-- node18&#45;&gt;node2 -->
<g id="edge40" class="edge"><title>node18&#45;&gt;node2</title>
<path style="fill:none;stroke:black;" d="M211,-268C194,-253 175,-238 158,-223"/>
<polygon style="fill:black;stroke:black;" points="159.831,-219.951 150,-216 155.221,-225.219 159.831,-219.951"/>
</g>
<!-- node23 -->
<g id="node23" class="node"><title>node23</title>
<ellipse style="fill:none;stroke:green;" cx="268" cy="-173" rx="53.9065" ry="30.4056"/>
<text text-anchor="middle" x="268" y="-177" style="font-family:Times New Roman;font-size:14.00;">郝月如</text>
<text text-anchor="middle" x="268" y="-159" style="font-family:Times New Roman;font-size:14.00;">Hao Yueru</text>
</g>
<!-- node18&#45;&gt;node23 -->
<g id="edge50" class="edge"><title>node18&#45;&gt;node23</title>
<path style="fill:none;stroke:black;" d="M268,-260C268,-245 268,-228 268,-214"/>
<polygon style="fill:black;stroke:black;" points="271.5,-214 268,-204 264.5,-214 271.5,-214"/>
</g>
<!-- node24 -->
<g id="node24" class="node"><title>node24</title>
<ellipse style="fill:none;stroke:green;" cx="241" cy="-43" rx="59.9064" ry="30.4056"/>
<text text-anchor="middle" x="241" y="-47" style="font-family:Times New Roman;font-size:14.00;">郝少如</text>
<text text-anchor="middle" x="241" y="-29" style="font-family:Times New Roman;font-size:14.00;">Hao Shaoru</text>
</g>
<!-- node23&#45;&gt;node24 -->
<g id="edge52" class="edge"><title>node23&#45;&gt;node24</title>
<path style="fill:none;stroke:black;" d="M262,-143C259,-125 254,-103 250,-84"/>
<polygon style="fill:black;stroke:black;" points="253.393,-83.1194 248,-74 246.529,-84.4922 253.393,-83.1194"/>
</g>
<!-- node25 -->
<g id="node25" class="node"><title>node25</title>
<ellipse style="fill:none;stroke:blue;" cx="691" cy="-945" rx="101.912" ry="50.9117"/>
<text text-anchor="middle" x="691" y="-963" style="font-family:Times New Roman;font-size:14.00;">陳王庭</text>
<text text-anchor="middle" x="691" y="-950" style="font-family:Times New Roman;font-size:14.00;">Chen Wangting</text>
<text text-anchor="middle" x="691" y="-933" style="font-family:Times New Roman;font-size:14.00;">mythical</text>
<text text-anchor="middle" x="691" y="-916" style="font-family:Times New Roman;font-size:14.00;">Founder of Chen style</text>
</g>
<!-- node25&#45;&gt;node9 -->
<g id="edge54" class="edge"><title>node25&#45;&gt;node9</title>
<path style="fill:none;stroke:black;stroke-dasharray:5,2;" d="M691,-894C691,-885 691,-877 691,-868"/>
<polygon style="fill:black;stroke:black;" points="694.5,-868 691,-858 687.5,-868 694.5,-868"/>
</g>
<!-- node25&#45;&gt;node10 -->
<g id="edge56" class="edge"><title>node25&#45;&gt;node10</title>
<path style="fill:none;stroke:black;stroke-dasharray:5,2;" d="M633,-903C612,-887 588,-870 568,-855"/>
<polygon style="fill:black;stroke:black;" points="570.1,-852.2 560,-849 565.9,-857.8 570.1,-852.2"/>
</g>
<!-- node27 -->
<g id="node27" class="node"><title>node27</title>
<ellipse style="fill:none;stroke:blue;" cx="904" cy="-567" rx="56.9056" ry="30.4056"/>
<text text-anchor="middle" x="904" y="-571" style="font-family:Times New Roman;font-size:14.00;">陳延熙</text>
<text text-anchor="middle" x="904" y="-553" style="font-family:Times New Roman;font-size:14.00;">Chen Yanxi</text>
</g>
<!-- node26&#45;&gt;node27 -->
<g id="edge60" class="edge"><title>node26&#45;&gt;node27</title>
<path style="fill:none;stroke:black;" d="M904,-666C904,-649 904,-627 904,-608"/>
<polygon style="fill:black;stroke:black;" points="907.5,-608 904,-598 900.5,-608 907.5,-608"/>
</g>
<!-- node29 -->
<g id="node29" class="node"><title>node29</title>
<ellipse style="fill:none;stroke:blue;" cx="1044" cy="-567" rx="64.871" ry="26.8701"/>
<text text-anchor="middle" x="1044" y="-568" style="font-family:Times New Roman;font-size:14.00;">陳延年</text>
<text text-anchor="middle" x="1044" y="-555" style="font-family:Times New Roman;font-size:14.00;">Chen Yannian</text>
</g>
<!-- node26&#45;&gt;node29 -->
<g id="edge62" class="edge"><title>node26&#45;&gt;node29</title>
<path style="fill:none;stroke:black;" d="M931,-668C954,-648 985,-620 1009,-599"/>
<polygon style="fill:black;stroke:black;" points="1011.78,-601.219 1017,-592 1007.17,-595.951 1011.78,-601.219"/>
</g>
<!-- node28 -->
<g id="node28" class="node"><title>node28</title>
<ellipse style="fill:none;stroke:blue;" cx="905" cy="-449" rx="56.8918" ry="38.8909"/>
<text text-anchor="middle" x="905" y="-459" style="font-family:Times New Roman;font-size:14.00;">陳發科</text>
<text text-anchor="middle" x="905" y="-446" style="font-family:Times New Roman;font-size:14.00;">Chen Fake</text>
<text text-anchor="middle" x="905" y="-429" style="font-family:Times New Roman;font-size:14.00;">1887&#45;1957</text>
</g>
<!-- node27&#45;&gt;node28 -->
<g id="edge64" class="edge"><title>node27&#45;&gt;node28</title>
<path style="fill:none;stroke:black;" d="M904,-536C904,-524 905,-511 905,-498"/>
<polygon style="fill:black;stroke:black;" points="908.5,-498 905,-488 901.5,-498 908.5,-498"/>
</g>
<!-- node30 -->
<g id="node30" class="node"><title>node30</title>
<ellipse style="fill:none;stroke:blue;" cx="1044" cy="-449" rx="62.8711" ry="26.8701"/>
<text text-anchor="middle" x="1044" y="-450" style="font-family:Times New Roman;font-size:14.00;">陳登科</text>
<text text-anchor="middle" x="1044" y="-437" style="font-family:Times New Roman;font-size:14.00;">Chen Dengke</text>
</g>
<!-- node29&#45;&gt;node30 -->
<g id="edge66" class="edge"><title>node29&#45;&gt;node30</title>
<path style="fill:none;stroke:black;" d="M1044,-540C1044,-524 1044,-504 1044,-486"/>
<polygon style="fill:black;stroke:black;" points="1047.5,-486 1044,-476 1040.5,-486 1047.5,-486"/>
</g>
<!-- node31 -->
<g id="node31" class="node"><title>node31</title>
<ellipse style="fill:none;stroke:blue;" cx="1044" cy="-315" rx="68.8917" ry="38.8909"/>
<text text-anchor="middle" x="1044" y="-325" style="font-family:Times New Roman;font-size:14.00;">陳照丕</text>
<text text-anchor="middle" x="1044" y="-312" style="font-family:Times New Roman;font-size:14.00;">Chen Zhaopei</text>
<text text-anchor="middle" x="1044" y="-295" style="font-family:Times New Roman;font-size:14.00;">1893&#45;1972</text>
</g>
<!-- node30&#45;&gt;node31 -->
<g id="edge68" class="edge"><title>node30&#45;&gt;node31</title>
<path style="fill:none;stroke:black;" d="M1044,-422C1044,-406 1044,-384 1044,-364"/>
<polygon style="fill:black;stroke:black;" points="1047.5,-364 1044,-354 1040.5,-364 1047.5,-364"/>
</g>
</g>
</svg>
